<svg id="Capa_1" enable-background="new 0 0 512.166 512.166" height="512" viewBox="0 0 512.166 512.166" width="512" xmlns="http://www.w3.org/2000/svg"><g><g><g><g><path d="m416.04 0h-54.29c-4.142 0-7.5 3.357-7.5 7.5s3.358 7.5 7.5 7.5h54.29c3.751 0 6.803 3.052 6.803 6.804v42.294h-255.226v-49.098h160.133c4.142 0 7.5-3.357 7.5-7.5s-3.358-7.5-7.5-7.5h-231.624c-12.022 0-21.803 9.781-21.803 21.804v468.581c0 12.01 9.771 21.781 21.781 21.781h319.958c12.01 0 21.781-9.771 21.781-21.781v-468.581c0-12.023-9.781-21.804-21.803-21.804zm-326.717 21.804c0-3.752 3.052-6.804 6.803-6.804h56.491v49.098h-63.294zm333.52 468.581c0 3.739-3.042 6.781-6.781 6.781h-319.958c-3.739 0-6.781-3.042-6.781-6.781v-411.238h333.52z"/><path d="m127.063 375.9 258.039-.005c6.893 0 12.5-5.607 12.5-12.5v-40.948c0-6.893-5.607-12.5-12.5-12.5h-258.039c-6.893 0-12.5 5.608-12.5 12.501v40.952c0 6.893 5.608 12.5 12.5 12.5zm222.22-50.953h33.319v35.948h-33.319zm-219.72 0h204.719v35.953h-204.719z"/><path d="m320.322 390.299h-128.479c-6.893 0-12.5 5.607-12.5 12.5v40.945c0 6.893 5.607 12.5 12.5 12.5h128.479c6.893 0 12.5-5.607 12.5-12.5v-40.945c0-6.893-5.607-12.5-12.5-12.5zm-2.5 50.945h-123.479v-35.945h123.479z"/><path d="m146.294 270.174c10.146 6.482 21.553 9.777 33.998 9.794 10.524 0 20.448-2.31 29.493-6.866 22.372-11.266 34.693-30.08 34.693-52.978v-73.723c0-14.511-11.806-26.316-26.317-26.316s-26.317 11.806-26.317 26.316v73.723c0 1.373 0 3.083-5.731 5.969-1.682.847-3.532 1.241-5.848 1.241-2.231-.002-4.021-.483-5.634-1.515-4.676-2.987-4.676-4.033-4.676-5.617v-11.953c0-4.143-3.358-7.5-7.5-7.5s-7.5 3.357-7.5 7.5v11.953c0 7.705 3.361 12.994 11.599 18.256 4.013 2.566 8.622 3.87 13.74 3.876 4.653 0 8.763-.93 12.565-2.844 12.536-6.313 13.985-14.076 13.985-19.366v-73.723c0-6.24 5.077-11.316 11.317-11.316s11.317 5.076 11.317 11.316v73.723c0 17.184-9.143 30.871-26.439 39.581-6.934 3.492-14.587 5.263-22.821 5.263-9.45-.013-18.146-2.514-25.848-7.435-14.836-9.479-22.049-21.689-22.049-37.331v-73.801c0-6.24 5.077-11.316 11.317-11.316s11.317 5.076 11.317 11.316v27.18c0 4.143 3.358 7.5 7.5 7.5s7.5-3.357 7.5-7.5v-27.18c0-14.511-11.806-26.316-26.317-26.316s-26.317 11.806-26.317 26.316v73.801c0 20.582 10.019 37.862 28.973 49.972z"/><path d="m255.864 256.164c.976 6.962 4.605 13.126 10.217 17.357 4.603 3.471 10.077 5.306 15.831 5.306 8.344 0 16.008-3.817 21.027-10.474l21.497-28.509 23.126 30.473c5.021 6.614 12.667 10.407 20.977 10.407 5.783 0 11.279-1.852 15.896-5.354 5.6-4.25 9.209-10.426 10.164-17.39.955-6.965-.86-13.884-5.11-19.483l-32.122-42.326 26.149-34.679c4.232-5.613 6.025-12.538 5.049-19.499-.977-6.962-4.605-13.126-10.217-17.357-5.614-4.234-12.539-6.026-19.501-5.051-6.961.977-13.125 4.606-17.356 10.219l-17.19 22.798-17.352-22.863c-8.773-11.558-25.314-13.827-36.873-5.054-11.559 8.772-13.826 25.313-5.054 36.873l26.348 34.717-30.456 40.391c-4.233 5.612-6.026 12.537-5.05 19.498zm17.026-10.468 33.872-44.921c2.021-2.68 2.015-6.376-.014-9.05l-29.777-39.236c-3.772-4.971-2.797-12.084 2.172-15.856 4.971-3.771 12.084-2.797 15.857 2.174l23.345 30.761c1.418 1.868 3.628 2.966 5.974 2.966h.012c2.35-.004 4.562-1.108 5.977-2.984l23.16-30.715c1.82-2.414 4.47-3.975 7.463-4.395 2.991-.414 5.971.353 8.386 2.173 2.413 1.82 3.974 4.471 4.393 7.464.42 2.993-.351 5.972-2.171 8.385l-29.565 39.209c-2.021 2.68-2.015 6.376.014 9.05l35.552 46.846c1.827 2.408 2.607 5.383 2.197 8.378-.411 2.995-1.963 5.65-4.371 7.478-1.986 1.507-4.347 2.304-6.828 2.304-3.578 0-6.869-1.632-9.029-4.477l-29.119-38.369c-1.418-1.868-3.628-2.966-5.974-2.966-.004 0-.008 0-.012 0-2.35.004-4.562 1.108-5.977 2.984l-27.465 36.425c-2.159 2.863-5.458 4.505-9.05 4.505-2.468 0-4.819-.789-6.8-2.283-2.414-1.819-3.974-4.47-4.394-7.463-.419-2.995.352-5.974 2.172-8.387z"/></g></g></g></g></svg>